<svg aria-hidden="true" style="position: absolute; width: 0; height: 0; overflow: hidden;" version="1.1" xmlns="http://www.w3.org/2000/svg" xmlns:xlink="http://www.w3.org/1999/xlink">
<defs>
<symbol id="icon-attachment1" viewBox="0 0 32 32">
<path d="M18.986 16.471c0.164 0.018 0.327 0.026 0.49 0.026 1.216 0 2.382-0.481 3.258-1.357l7.405-7.405c0.866-0.866 1.349-2.014 1.356-3.231 0.009-1.22-0.459-2.364-1.316-3.222-0.85-0.85-1.98-1.317-3.188-1.317-0.011 0-0.021 0-0.033 0-1.217 0.008-2.364 0.49-3.23 1.356l-7.405 7.405c-1.095 1.095-1.569 2.649-1.269 4.157 0.058 0.29 0.346 0.479 0.629 0.419 0.29-0.058 0.478-0.339 0.42-0.628-0.231-1.157 0.134-2.351 0.976-3.192l7.405-7.405c0.666-0.667 1.548-1.037 2.482-1.043 0.975 0 1.805 0.35 2.458 1.003s1.010 1.527 1.004 2.458c-0.007 0.935-0.377 1.816-1.044 2.482l-7.405 7.405c-0.764 0.763-1.813 1.133-2.879 1.024-0.285-0.033-0.557 0.181-0.588 0.475-0.032 0.296 0.181 0.559 0.474 0.59zM15.14 23.273c1.148-1.148 1.608-2.769 1.229-4.334-0.069-0.287-0.351-0.466-0.646-0.394-0.287 0.069-0.463 0.358-0.394 0.645 0.291 1.201-0.063 2.444-0.946 3.328l-7.405 7.405c-0.666 0.667-1.548 1.037-2.482 1.043-0.959 0.005-1.805-0.349-2.458-1.003-0.653-0.653-1.010-1.526-1.003-2.458 0.006-0.935 0.377-1.816 1.043-2.483l7.405-7.405c0.771-0.771 1.822-1.144 2.906-1.021 0.288 0.022 0.559-0.177 0.592-0.471 0.033-0.293-0.177-0.558-0.471-0.592-1.404-0.158-2.78 0.324-3.783 1.327l-7.405 7.405c-0.866 0.866-1.348 2.014-1.356 3.231-0.009 1.22 0.459 2.364 1.316 3.222 0.85 0.85 1.98 1.317 3.188 1.317 0.011 0 0.021 0 0.033 0 1.217-0.008 2.364-0.49 3.23-1.356l7.407-7.406zM22.734 8.872c-0.209-0.209-0.547-0.209-0.756 0l-13.5 13.5c-0.209 0.208-0.209 0.547 0 0.756 0.104 0.104 0.241 0.157 0.378 0.157s0.273-0.052 0.378-0.157l13.5-13.5c0.209-0.209 0.209-0.547 0-0.756z"></path>
</symbol>
<symbol id="icon-facebook1" viewBox="0 0 32 32">
<path d="M16-0.034c-8.841 0-16.035 7.192-16.035 16.034s7.194 16.034 16.035 16.034 16.035-7.192 16.035-16.034-7.194-16.034-16.035-16.034zM16 30.966c-8.252 0-14.965-6.714-14.965-14.966s6.713-14.966 14.965-14.966 14.965 6.714 14.965 14.966-6.713 14.966-14.965 14.966zM19.5 7h-2.668c-3.398-0.034-3.832 2.069-3.832 4.345v1.655h-1.5c-0.295-0.034-0.535 0.205-0.5 0.5v3c-0.035 0.295 0.205 0.534 0.5 0.5h1.5v7.5c-0.031 0.295 0.208 0.534 0.503 0.5h3.055c0.295 0.034 0.534-0.205 0.44-0.5l0.002-7.5h2.5c0.295 0.034 0.535-0.205 0.5-0.5v-3c0.035-0.295-0.205-0.534-0.5-0.5h-2.503l0.003-1.5c0.097-0.639 0.097-0.535 0.69-0.5h1.789c0.139-0.031 0.287-0.014 0.391-0.115s0.164-0.239 0.129-0.385v-3c0.036-0.295-0.204-0.534-0.499-0.5zM18.965 9.944l-1.254-0.048c-1.553 0-1.683 0.843-1.683 1.706l-0.004 1.896c0 0.142 0.056 0.278 0.156 0.379s0.236 0.156 0.378 0.156h2.442v1.932h-2.44c-0.295 0-0.534 0.239-0.535 0.534l-0.001 7.501h-2.024v-7.5c0-0.295-0.201-0.534-0.497-0.534h-1.503v-1.932h1.503c0.142 0 0.278-0.056 0.378-0.156s0.118-0.237 0.118-0.379v-2.155c0-2.242 0.453-3.31 2.832-3.31h2.133v1.91z"></path>
</symbol>
<symbol id="icon-twitter1" viewBox="0 0 32 32">
<path d="M16-0.034c-8.841 0-16.035 7.192-16.035 16.034s7.194 16.034 16.035 16.034 16.035-7.192 16.035-16.034-7.194-16.034-16.035-16.034zM16 30.966c-8.252 0-14.965-6.714-14.965-14.966s6.713-14.966 14.965-14.966 14.965 6.714 14.965 14.966-6.713 14.966-14.965 14.966zM24.794 11.046c0.11-0.204 0.202-0.419 0.273-0.643 0.067-0.212-0.002-0.442-0.176-0.581-0.173-0.138-0.415-0.154-0.605-0.042-0.513 0.305-1.065 0.53-1.646 0.673-0.698-0.631-1.615-0.987-2.562-0.987-2.105 0-3.817 1.712-3.817 3.815 0 0.053 0.001 0.105 0.003 0.158-2.235-0.279-4.298-1.415-5.735-3.178-0.11-0.136-0.28-0.207-0.456-0.195-0.175 0.014-0.332 0.112-0.42 0.265-0.338 0.58-0.517 1.243-0.517 1.919 0 0.64 0.159 1.256 0.451 1.802-0.074 0.012-0.147 0.039-0.214 0.078-0.163 0.097-0.264 0.292-0.264 0.481 0 1.135 0.505 2.177 1.319 2.885-0.012 0.011-0.023 0.023-0.035 0.035-0.125 0.142-0.166 0.338-0.108 0.518 0.351 1.094 1.164 1.946 2.184 2.365-1.041 0.515-2.25 0.716-3.406 0.579-0.244-0.022-0.481 0.116-0.566 0.352-0.083 0.234 0.005 0.495 0.215 0.63 1.592 1.020 3.431 1.559 5.319 1.559 6.18 0 9.874-5.020 9.874-9.873 0-0.055 0-0.109-0.001-0.164 0.597-0.466 1.115-1.023 1.541-1.66 0.132-0.197 0.118-0.459-0.035-0.641-0.151-0.179-0.4-0.241-0.616-0.15zM23.049 12.801c-0.147 0.106-0.231 0.279-0.222 0.461 0.006 0.132 0.009 0.266 0.009 0.398 0 4.328-3.293 8.805-8.804 8.805-0.989 0-1.964-0.166-2.887-0.488 1.105-0.211 2.141-0.682 3.045-1.39 0.178-0.14 0.249-0.376 0.177-0.591-0.072-0.214-0.271-0.36-0.497-0.364-0.891-0.018-1.699-0.461-2.194-1.162 0.253-0.017 0.501-0.059 0.742-0.124 0.239-0.065 0.401-0.286 0.393-0.534s-0.186-0.457-0.429-0.506c-1.003-0.201-1.79-0.943-2.081-1.905 0.266 0.067 0.539 0.106 0.812 0.115 0.235-0.001 0.453-0.145 0.526-0.371s-0.013-0.475-0.212-0.607c-0.765-0.512-1.222-1.366-1.222-2.287 0-0.223 0.027-0.443 0.079-0.658 1.731 1.775 4.080 2.847 6.568 2.972 0.176 0.001 0.33-0.062 0.437-0.191s0.148-0.3 0.11-0.464c-0.047-0.203-0.071-0.414-0.071-0.627 0-1.515 1.233-2.747 2.748-2.747 0.757 0 1.488 0.316 2.005 0.868 0.126 0.135 0.312 0.194 0.494 0.159 0.165-0.033 0.328-0.071 0.489-0.115-0.072 0.054-0.147 0.104-0.226 0.151-0.216 0.129-0.312 0.393-0.231 0.631s0.324 0.394 0.569 0.357c0.061-0.007 0.121-0.015 0.182-0.023-0.099 0.082-0.203 0.161-0.309 0.237z"></path>
</symbol>
<symbol id="icon-linkedin1" viewBox="0 0 32 32">
<path d="M19.515 11.952c-0.678 0-1.18 0.171-1.573 0.387-0.063-0.224-0.27-0.388-0.514-0.339h-2.984c-0.295-0.049-0.534 0.19-0.443 0.5v11c-0.091 0.28 0.148 0.52 0.443 0.5h2.984c0.295 0.020 0.534-0.22 0.534-0.515l-0.001-6.648c-0.001-0.003-0.012-0.321 0.189-0.54 0.161-0.174 0.438-0.263 0.821-0.263 0.638 0 0.922 0.261 1.028 0.845v6.606c-0.105 0.295 0.134 0.535 0.429 0.515h3.145c0.295 0.020 0.534-0.22 0.428-0.515v-6.828c0.105-3.472-2.368-4.705-4.486-4.705zM23.038 23h-2.076v-6.121c0-1.181-0.763-1.913-1.99-1.913-0.694 0-1.234 0.204-1.606 0.606-0.517 0.56-0.477 1.27-0.366 1.428v6h-2.022v-9.98h1.916v0.336c0 0.203 0.115 0.39 0.298 0.479s0.4 0.067 0.562-0.056l0.14-0.108c0.405-0.319 0.824-0.65 1.622-0.65 0.826 0 3.523 0.263 3.523 3.637v6.342zM11 6.966c-1.122 0-2.034 0.912-2.034 2.034s0.912 2.034 2.034 2.034 2.034-0.912 2.034-2.034-0.912-2.034-2.034-2.034zM11 9.966c-0.532 0-0.966-0.434-0.966-0.966s0.434-0.966 0.966-0.966 0.966 0.434 0.966 0.966-0.434 0.966-0.966 0.966zM12.428 11.951h-2.968c-0.295 0-0.534 0.239-0.46 0.549v11c-0.074 0.28 0.165 0.52 0.46 0.5h2.968c0.295 0.020 0.534-0.22 0.534-0.515v-11c0-0.295-0.239-0.534-0.534-0.534zM12 23h-2.006v-9.98h2.006v9.98zM16-0.034c-8.842 0-16.034 7.192-16.034 16.034s7.192 16.034 16.034 16.034 16.034-7.192 16.034-16.034-7.192-16.034-16.034-16.034zM16 30.966c-8.252 0-14.966-6.714-14.966-14.966s6.714-14.966 14.966-14.966 14.966 6.714 14.966 14.966-6.714 14.966-14.966 14.966z"></path>
</symbol>
<symbol id="icon-git-merge" viewBox="0 0 24 24">
<path d="M20 18c0 0.553-0.223 1.051-0.586 1.414s-0.861 0.586-1.414 0.586-1.051-0.223-1.414-0.586-0.586-0.861-0.586-1.414 0.223-1.051 0.586-1.414 0.861-0.586 1.414-0.586 1.051 0.223 1.414 0.586 0.586 0.861 0.586 1.414zM8 6c0 0.553-0.223 1.051-0.586 1.414s-0.861 0.586-1.414 0.586-1.051-0.223-1.414-0.586-0.586-0.861-0.586-1.414 0.223-1.051 0.586-1.414 0.861-0.586 1.414-0.586 1.051 0.223 1.414 0.586 0.586 0.861 0.586 1.414zM7 21v-5.999c0.284 0.379 0.595 0.736 0.929 1.070 1.614 1.614 3.779 2.679 6.188 2.89 0.177 0.719 0.549 1.361 1.055 1.867 0.722 0.723 1.724 1.172 2.828 1.172s2.106-0.449 2.828-1.172 1.172-1.724 1.172-2.828-0.449-2.106-1.172-2.828-1.724-1.172-2.828-1.172-2.106 0.449-2.828 1.172c-0.486 0.486-0.848 1.098-1.033 1.783-1.865-0.2-3.537-1.039-4.795-2.297s-2.098-2.93-2.297-4.795c0.683-0.186 1.295-0.549 1.781-1.035 0.723-0.722 1.172-1.724 1.172-2.828s-0.449-2.106-1.172-2.828-1.724-1.172-2.828-1.172-2.106 0.449-2.828 1.172-1.172 1.724-1.172 2.828 0.449 2.106 1.172 2.828c0.496 0.497 1.125 0.865 1.828 1.046v11.126c0 0.552 0.448 1 1 1s1-0.448 1-1z"></path>
</symbol>
<symbol id="icon-github" viewBox="0 0 24 24">
<path d="M8.713 18.042c-1.268 0.38-2.060 0.335-2.583 0.17-0.231-0.073-0.431-0.176-0.614-0.302-0.411-0.284-0.727-0.675-1.119-1.172-0.356-0.451-0.85-1.107-1.551-1.476-0.185-0.098-0.386-0.177-0.604-0.232-0.536-0.134-1.079 0.192-1.213 0.728s0.192 1.079 0.728 1.213c0.074 0.023 0.155 0.060 0.155 0.060 0.252 0.133 0.487 0.404 0.914 0.946 0.366 0.464 0.856 1.098 1.553 1.579 0.332 0.229 0.711 0.426 1.149 0.564 1.015 0.321 2.236 0.296 3.76-0.162 0.529-0.159 0.829-0.716 0.67-1.245s-0.716-0.829-1.245-0.67zM17 22v-3.792c0.052-0.684-0.056-1.343-0.292-1.942 0.777-0.171 1.563-0.427 2.297-0.823 2.083-1.124 3.496-3.242 3.496-6.923 0-1.503-0.516-2.887-1.379-3.981 0.355-1.345 0.226-2.726-0.293-3.933-0.122-0.283-0.359-0.482-0.634-0.564-0.357-0.106-1.732-0.309-4.373 1.362-2.273-0.541-4.557-0.509-6.646-0.002-2.639-1.669-4.013-1.466-4.37-1.36-0.296 0.088-0.521 0.3-0.635 0.565-0.554 1.292-0.624 2.672-0.292 3.932-0.93 1.178-1.387 2.601-1.379 4.017 0 3.622 1.389 5.723 3.441 6.859 0.752 0.416 1.56 0.685 2.357 0.867-0.185 0.468-0.286 0.961-0.304 1.456-0.005 0.141-0.003 0.283 0.005 0.424l0.001 3.838c0 0.552 0.448 1 1 1s1-0.448 1-1v-3.87c0-0.021-0.001-0.045-0.002-0.069-0.006-0.084-0.007-0.168-0.004-0.252 0.020-0.568 0.241-1.126 0.665-1.564 0.145-0.149 0.246-0.347 0.274-0.572 0.068-0.548-0.321-1.048-0.869-1.116-0.34-0.042-0.677-0.094-1.006-0.159-0.79-0.156-1.518-0.385-2.147-0.733-1.305-0.723-2.391-2.071-2.41-5.042 0.013-1.241 0.419-2.319 1.224-3.165 0.257-0.273 0.35-0.671 0.212-1.040-0.28-0.748-0.341-1.58-0.14-2.392 0.491 0.107 1.354 0.416 2.647 1.282 0.235 0.157 0.533 0.214 0.825 0.133 1.997-0.557 4.242-0.602 6.47 0.002 0.271 0.073 0.569 0.033 0.818-0.135 1.293-0.866 2.156-1.175 2.647-1.282 0.189 0.766 0.157 1.595-0.141 2.392-0.129 0.352-0.058 0.755 0.213 1.040 0.758 0.795 1.224 1.872 1.224 3.060 0 3.075-1.114 4.445-2.445 5.163-0.623 0.336-1.343 0.555-2.123 0.7-0.322 0.060-0.651 0.106-0.983 0.143-0.21 0.023-0.418 0.114-0.584 0.275-0.397 0.384-0.408 1.017-0.024 1.414 0.067 0.070 0.13 0.143 0.188 0.22 0.34 0.449 0.521 1.015 0.474 1.617 0 0.024-0.001 0.051-0.003 0.078v3.872c0 0.552 0.448 1 1 1s1-0.448 1-1z"></path>
</symbol>
</defs>
</svg>
